<svg width="132" height="40" viewBox="0 0 132 40" fill="none" xmlns="http://www.w3.org/2000/svg">
    <path d="M62.032 29H66.208L62.752 22.112C64.84 21.368 66.112 19.616 66.112 17.312C66.112 14.288 63.952 11.984 60.592 11.984H53.848V29H57.64V22.664H58.984L62.032 29ZM57.64 19.4V15.272H59.872C61.432 15.272 62.272 16.064 62.272 17.336C62.272 18.536 61.432 19.4 59.872 19.4H57.64Z" fill="black"/>
    <path d="M67.724 25.712C67.724 27.608 69.236 29.336 71.852 29.336C73.436 29.336 74.588 28.664 75.212 27.656C75.212 28.472 75.308 28.904 75.332 29H78.62C78.596 28.88 78.476 28.088 78.476 27.152V21.32C78.476 18.872 77.06 16.712 73.196 16.712C69.692 16.712 68.108 18.968 67.964 20.672L71.132 21.32C71.204 20.432 71.9 19.568 73.172 19.568C74.324 19.568 74.924 20.168 74.924 20.864C74.924 21.272 74.708 21.584 74.06 21.68L71.252 22.112C69.284 22.4 67.724 23.6 67.724 25.712ZM72.74 26.696C71.732 26.696 71.324 26.096 71.324 25.472C71.324 24.632 71.9 24.272 72.668 24.152L74.924 23.792V24.32C74.924 26.168 73.82 26.696 72.74 26.696Z" fill="black"/>
    <path d="M89.1295 17.072C88.8895 17 88.5295 16.952 88.1695 16.952C87.2095 16.952 85.6975 17.336 85.0735 18.68V17.072H81.5455V29H85.1935V23.792C85.1935 21.416 86.5135 20.552 87.9775 20.552C88.3375 20.552 88.7215 20.576 89.1295 20.672V17.072Z" fill="black"/>
    <path d="M94.9904 29V17.072H91.3424V29H94.9904ZM91.0304 13.424C91.0304 14.6 91.9904 15.56 93.1424 15.56C94.3424 15.56 95.3024 14.6 95.3024 13.424C95.3024 12.248 94.3424 11.288 93.1424 11.288C91.9904 11.288 91.0304 12.248 91.0304 13.424Z" fill="black"/>
    <path d="M101.714 29V27.656C102.266 28.568 103.49 29.264 105.074 29.264C108.41 29.264 110.762 26.648 110.762 23C110.762 19.424 108.674 16.784 105.218 16.784C103.586 16.784 102.266 17.456 101.762 18.2V11.624H98.1861V29H101.714ZM107.114 23.024C107.114 25.016 105.842 26 104.426 26C103.01 26 101.714 24.992 101.714 23.024C101.714 21.008 103.01 20.072 104.426 20.072C105.842 20.072 107.114 21.008 107.114 23.024Z" fill="black"/>
    <path d="M116.764 29V11.624H113.116V29H116.764Z" fill="black"/>
    <path d="M122.743 21.608C122.815 20.72 123.583 19.592 125.119 19.592C126.847 19.592 127.471 20.696 127.519 21.608H122.743ZM127.783 24.704C127.447 25.64 126.703 26.264 125.383 26.264C123.967 26.264 122.743 25.304 122.671 23.96H130.975C130.999 23.888 131.047 23.336 131.047 22.832C131.047 18.992 128.767 16.712 125.071 16.712C121.975 16.712 119.119 19.16 119.119 23C119.119 27.008 122.047 29.36 125.335 29.36C128.359 29.36 130.255 27.632 130.831 25.568L127.783 24.704Z" fill="black"/>
    <rect width="40" height="40" rx="6" fill="#FEDA03"/>
    <path d="M27.6007 19.8536C28.8607 19.5262 29.9817 18.5837 29.9817 16.6889C29.9817 13.5341 27.3031 12.8 23.8706 12.8H10.2V27.0063H15.9539V22.1849H22.7793C23.8309 22.1849 24.446 22.6016 24.446 23.6333V27.0063H30.2V23.4547C30.2 21.5202 29.1087 20.3 27.6007 19.8536ZM22.8785 18.3555H15.9539V16.9667H22.8785C23.6325 16.9667 24.0888 17.0659 24.0888 17.6611C24.0888 18.2563 23.6325 18.3555 22.8785 18.3555Z" fill="black"/>
</svg>
